# xmcd CD database file
#
# Track frame offsets:
#	150
#	19156
#	38539
#	57845
#	85893
#	102691
#	127702
#	145942
#	164760
#	195762
#	214253
#
# Disc length: 3233 seconds
#
# Revision: 0
# Processed by: cddbd v1.5.2PL0 Copyright (c) Steve Scherf et al.
# Submitted via: CDex 1.51
#
DISCID=910c9f0b
DTITLE=Zito - Slow it Down
DYEAR=2004
DGENRE=Blues
TTITLE0=talk is cheap
TTITLE1=big mouth
TTITLE2=change my ways
TTITLE3=slow it down
TTITLE4=long dark road
TTITLE5=hard to say
TTITLE6=walk with me
TTITLE7=dirty things
TTITLE8=wartime jim
TTITLE9=sweet on me
TTITLE10=loving you my way
EXTD=YEAR: 2004
EXTT0=
EXTT1=
EXTT2=
EXTT3=
EXTT4=
EXTT5=
EXTT6=
EXTT7=
EXTT8=
EXTT9=
EXTT10=
PLAYORDER=
